<svg width="28" height="28" viewBox="0 0 28 28" fill="none"
    xmlns="http://www.w3.org/2000/svg">
    <path d="M8.27295 0C3.71133 0 0 3.71133 0 8.27295V19.727C0 24.2887 3.71133 28 8.27295 28H19.727C24.2887 28 28 24.2887 28 19.727V8.27295C28 3.71133 24.2887 0 19.727 0H8.27295ZM8.27295 1.2717H19.727C23.6009 1.2717 26.7283 4.39907 26.7283 8.27295V19.727C26.7283 23.6009 23.6009 26.7283 19.727 26.7283H8.27295C4.39907 26.7283 1.2717 23.6009 1.2717 19.727V8.27295C1.2717 4.39907 4.39907 1.2717 8.27295 1.2717ZM21.6365 5.09057C20.9337 5.09057 20.3635 5.66077 20.3635 6.36352C20.3635 7.06627 20.9337 7.63648 21.6365 7.63648C22.3392 7.63648 22.9094 7.06627 22.9094 6.36352C22.9094 5.66077 22.3392 5.09057 21.6365 5.09057ZM14 7C10.1411 7 7 10.1411 7 14C7 17.8589 10.1411 21 14 21C17.8589 21 21 17.8589 21 14C21 10.1411 17.8589 7 14 7ZM14 8.27295C17.1711 8.27295 19.727 10.8289 19.727 14C19.727 17.1711 17.1711 19.727 14 19.727C10.8289 19.727 8.27295 17.1711 8.27295 14C8.27295 10.8289 10.8289 8.27295 14 8.27295Z" fill="black"/>
</svg>
