<svg width="30" height="28" viewBox="0 0 30 28" fill="none"
    xmlns="http://www.w3.org/2000/svg">
    <path d="M28.2292 0.00172858C27.8981 0.0164757 27.5736 0.10898 27.2827 0.225615C26.9931 0.34225 25.3321 1.05145 22.8774 2.10117C20.4227 3.15089 17.232 4.517 14.0681 5.87238C7.74293 8.58315 1.5264 11.2497 1.5264 11.2497L1.57198 11.2323C1.57198 11.2323 1.1966 11.3569 0.815857 11.6224C0.625487 11.7551 0.420369 11.9267 0.252789 12.1761C0.0852096 12.4254 -0.0367884 12.778 0.010134 13.152C0.171011 14.4659 1.5331 14.8386 1.5331 14.8386L1.53846 14.8412L7.61155 16.9192C7.76706 17.4367 9.45359 23.0687 9.82494 24.2606C10.0301 24.9202 10.2218 25.3009 10.4229 25.5596C10.5221 25.6897 10.628 25.7902 10.7433 25.864C10.7902 25.8935 10.8385 25.9149 10.8867 25.935C10.8867 25.935 10.8881 25.9337 10.8894 25.935C10.8948 25.9377 10.9001 25.9377 10.9055 25.9404L10.8907 25.9364C10.9015 25.9404 10.9122 25.9484 10.9229 25.9525C10.9457 25.9592 10.9578 25.9592 10.9859 25.9659C11.6817 26.2085 12.2569 25.7567 12.2569 25.7567L12.281 25.7393L16.012 22.2778L22.0676 26.9995L22.1441 27.0343C23.2032 27.5049 24.1617 27.2421 24.6926 26.8105C25.2235 26.3788 25.4326 25.8211 25.4326 25.8211L25.4554 25.7621L29.905 2.57173C30.019 2.0529 30.0351 1.60379 29.9278 1.19892C29.8206 0.794045 29.5591 0.441458 29.232 0.245725C28.9049 0.0513323 28.5617 -0.011678 28.2292 0.00172858ZM28.2654 1.38929C28.4008 1.38393 28.5014 1.39867 28.5322 1.41744C28.5644 1.43621 28.5778 1.43353 28.6086 1.54748C28.6381 1.66278 28.6555 1.90275 28.5724 2.27947L28.5697 2.28752L24.1456 25.3438C24.1349 25.3679 24.0424 25.5811 23.8319 25.7514C23.6174 25.927 23.3788 26.0637 22.7447 25.7969L16.1233 20.6341L15.9369 20.4867L15.9329 20.4907L13.9528 19.0053L25.0814 5.9126C25.2557 5.70748 25.2932 5.41925 25.1779 5.17525C25.0613 4.93259 24.8133 4.7811 24.5438 4.78781C24.4151 4.79049 24.2904 4.83071 24.1832 4.90176L8.07943 15.6376L1.99696 13.5542C1.99696 13.5542 1.39233 13.2191 1.36284 12.9845C1.3615 12.9711 1.35479 12.9831 1.38563 12.9362C1.4178 12.8893 1.4969 12.8102 1.59477 12.7418C1.79318 12.6037 2.01841 12.5206 2.01841 12.5206L2.0412 12.5126L2.06399 12.5032C2.06399 12.5032 8.28053 9.83665 14.607 7.12588C17.7696 5.77183 20.9603 4.40572 23.4136 3.356C25.867 2.30763 27.6393 1.55285 27.7895 1.49252C27.9611 1.42415 28.1313 1.39599 28.2654 1.38929ZM20.8865 8.74001L12.4472 18.6688L12.4432 18.6728C12.4298 18.6889 12.4164 18.705 12.4057 18.7224C12.3923 18.7412 12.3789 18.7599 12.3681 18.78C12.3212 18.8605 12.2904 18.9503 12.2783 19.0428C12.2783 19.0441 12.2783 19.0455 12.2783 19.0482L11.179 23.9911C11.1616 23.9388 11.1482 23.9187 11.128 23.8557V23.8544C10.7795 22.7322 9.18814 17.4206 8.96693 16.686L20.8865 8.74001ZM13.3991 20.2963L14.9153 21.4345L12.6872 23.5004L13.3991 20.2963Z" fill="black"/>
</svg>
