<svg width="28" height="28" viewBox="0 0 28 28" fill="none"
    xmlns="http://www.w3.org/2000/svg">
    <path d="M14 0C6.27463 0 6.05413e-05 6.27457 6.05413e-05 14C6.05413e-05 16.483 0.680623 18.7998 1.81569 20.8235L0.0227855 27.2273C-0.0358217 27.4366 0.0203935 27.6603 0.171098 27.8157C0.321803 27.9712 0.544271 28.0346 0.754779 27.982L7.43242 26.3278C9.39517 27.3756 11.6211 27.9999 14 27.9999C21.7254 27.9999 28 21.7254 28 14C28 6.27457 21.7254 0 14 0ZM14 1.2176C21.0664 1.2176 26.7824 6.9336 26.7824 14C26.7824 21.0663 21.0664 26.7823 14 26.7823C11.7347 26.7823 9.61285 26.1927 7.76732 25.1605C7.63336 25.0851 7.47429 25.0636 7.32478 25.1007L1.47601 26.5503L3.04405 20.9551C3.0895 20.7948 3.06797 20.6238 2.98425 20.4803C1.86234 18.5797 1.21766 16.3682 1.21766 14C1.21766 6.9336 6.93366 1.2176 14 1.2176ZM8.91315 6.69559C8.52204 6.69559 7.96587 6.84031 7.50778 7.33429C7.23268 7.62971 6.08685 8.74684 6.08685 10.7096C6.08685 12.7549 7.50538 14.5215 7.67762 14.7475H7.67881V14.7487C7.66207 14.7272 7.8965 15.0669 8.20867 15.4735C8.52084 15.879 8.9586 16.4136 9.5076 16.9913C10.6056 18.1467 12.1485 19.4827 14.0646 20.2997C14.9461 20.6752 15.6422 20.9025 16.1697 21.0675C17.1469 21.3749 18.0368 21.3283 18.7054 21.2302C19.2065 21.156 19.7567 20.9156 20.3009 20.5712C20.8463 20.2267 21.3798 19.7973 21.6154 19.1466C21.784 18.6802 21.869 18.2484 21.9001 17.8932C21.9156 17.7162 21.918 17.5595 21.906 17.4147C21.8941 17.27 21.9072 17.1588 21.7721 16.9363C21.4886 16.471 21.1681 16.4591 20.8332 16.2928C20.6466 16.2007 20.1167 15.9424 19.5857 15.6888C19.0546 15.4364 18.5953 15.2128 18.3119 15.1111C18.1336 15.0477 17.9148 14.9544 17.6002 14.9903C17.2844 15.0262 16.9735 15.2534 16.7928 15.5214C16.6206 15.7761 15.9305 16.5918 15.7188 16.8323C15.7164 16.8299 15.7343 16.8382 15.6518 16.7976C15.3911 16.6684 15.0717 16.5584 14.6005 16.3096C14.1292 16.0608 13.5383 15.6936 12.8937 15.1243V15.1231C11.932 14.2775 11.2586 13.2154 11.0469 12.8589C11.0613 12.8422 11.0445 12.8625 11.0756 12.8326L11.0768 12.8314C11.2933 12.6173 11.4859 12.3626 11.6486 12.1748C11.8794 11.9092 11.9811 11.676 12.0911 11.4571C12.31 11.0218 12.188 10.5421 12.0612 10.2898V10.2886C12.0696 10.3053 11.9918 10.1343 11.9093 9.93813C11.8256 9.73958 11.7179 9.48362 11.6043 9.20972C11.3771 8.66312 11.1223 8.04953 10.9704 7.69071V7.68952C10.7922 7.26611 10.5518 6.96111 10.236 6.814C9.92024 6.66688 9.64156 6.70874 9.6308 6.70874H9.6296C9.40474 6.69798 9.15835 6.69559 8.91315 6.69559ZM8.91315 7.91318C9.14758 7.91318 9.37842 7.91558 9.57219 7.92514C9.77193 7.93471 9.75997 7.93591 9.7217 7.91797C9.68223 7.90003 9.73485 7.89405 9.84848 8.16197C9.99679 8.5148 10.2528 9.12958 10.4812 9.67858C10.5948 9.95248 10.7025 10.2096 10.7874 10.4118C10.8735 10.6139 10.919 10.7263 10.9728 10.834V10.8352L10.974 10.8364C11.0266 10.9404 11.0218 10.8735 11.0039 10.9105C10.8759 11.1653 10.858 11.2275 10.7288 11.377C10.5302 11.6054 10.3281 11.859 10.2217 11.9643C10.1284 12.0564 9.95971 12.1999 9.85446 12.4798C9.74921 12.7596 9.79825 13.1448 9.96689 13.4318C10.1929 13.8146 10.9345 15.0226 12.0887 16.0381C12.8147 16.678 13.4917 17.1014 14.0323 17.3872C14.5729 17.6719 15.0131 17.8393 15.1112 17.8872C15.3456 18.0032 15.6016 18.0929 15.8982 18.0582C16.196 18.0223 16.452 17.8417 16.6158 17.6575L16.617 17.6563C16.8335 17.41 17.4794 16.6732 17.7892 16.2187C17.8023 16.2235 17.7975 16.2199 17.9004 16.257V16.2581H17.9016C17.9494 16.2749 18.5379 16.538 19.0618 16.788C19.5869 17.038 20.1203 17.2975 20.2925 17.3836C20.5425 17.5068 20.6609 17.5882 20.6908 17.5882C20.6932 17.642 20.6956 17.6994 20.6872 17.7879C20.6657 18.0319 20.6011 18.3704 20.4696 18.7328C20.4062 18.9098 20.0725 19.2758 19.6503 19.5425C19.2292 19.8093 18.7173 19.9971 18.5271 20.0258C17.9566 20.1095 17.2785 20.1406 16.5345 19.9062C16.019 19.7447 15.3755 19.5342 14.5418 19.1801C12.853 18.4589 11.4165 17.2329 10.3903 16.1529C9.87719 15.6135 9.46693 15.1099 9.1739 14.7296C8.88206 14.3504 8.75527 14.1531 8.64882 14.0131L8.64763 14.0119C8.45865 13.762 7.30444 12.1556 7.30444 10.7096C7.30444 9.17743 8.01491 8.577 8.40004 8.16197C8.60218 7.94428 8.82345 7.91318 8.91315 7.91318Z" fill="black"/>
</svg>
